<svg width="16" height="16" viewBox="0 0 16 16" fill="none" xmlns="http://www.w3.org/2000/svg">
<circle cx="8" cy="8" r="8" fill="#03D69D"/>
<path d="M11.8131 5.22024C11.8723 5.28988 11.9193 5.37261 11.9514 5.46368C11.9835 5.55476 12 5.6524 12 5.751C12 5.84961 11.9835 5.94725 11.9514 6.03833C11.9193 6.1294 11.8723 6.21213 11.8131 6.28177L7.99597 10.7798C7.93688 10.8496 7.86667 10.905 7.78938 10.9428C7.71209 10.9805 7.62923 11 7.54555 11C7.46187 11 7.37901 10.9805 7.30172 10.9428C7.22443 10.905 7.15423 10.8496 7.09513 10.7798L5.18657 8.53076C5.12742 8.46106 5.0805 8.37832 5.04849 8.28725C5.01648 8.19618 5 8.09857 5 8C5 7.90143 5.01648 7.80382 5.04849 7.71275C5.0805 7.62168 5.12742 7.53894 5.18657 7.46924C5.24572 7.39954 5.31594 7.34425 5.39322 7.30652C5.47051 7.2688 5.55334 7.24939 5.63699 7.24939C5.72064 7.24939 5.80347 7.2688 5.88076 7.30652C5.95804 7.34425 6.02826 7.39954 6.08741 7.46924L7.54555 9.18897L10.9123 5.22024C10.9714 5.15043 11.0416 5.09504 11.1188 5.05725C11.1961 5.01945 11.279 5 11.3627 5C11.4464 5 11.5292 5.01945 11.6065 5.05725C11.6838 5.09504 11.754 5.15043 11.8131 5.22024Z" fill="white"/>
</svg>
